<svg xmlns="http://www.w3.org/2000/svg" width="29.299" height="36.734" viewBox="0 0 29.299 36.734">
  <g id="工事の作業員のアイコン" transform="translate(-66.505)">
    <rect id="Rectangle_426" data-name="Rectangle 426" width="4.922" height="0.685" transform="translate(71.554 33.371)" fill="#4b4b4b"/>
    <rect id="Rectangle_427" data-name="Rectangle 427" width="4.922" height="0.685" transform="translate(85.833 33.371)" fill="#4b4b4b"/>
    <path id="Path_216" data-name="Path 216" d="M95.232,29.931a5.322,5.322,0,0,0-1.472-1.795A10.5,10.5,0,0,0,89.9,26.392c-.818-.218-1.547-.372-2-.522a3.874,3.874,0,0,0-.538-.118c-.036-.006-.063-.013-.1-.02l-.3-1.271a1.548,1.548,0,0,0-1.273-1.136v-.9a7.991,7.991,0,0,0,2.248-3.838,2.9,2.9,0,0,0,.45-.231,2.586,2.586,0,0,0,.654-.61,7.222,7.222,0,0,0,1.021-2.277,3.705,3.705,0,0,0,.184-1.08,1.845,1.845,0,0,0-.229-.938,1.4,1.4,0,0,0-.135-.174v-.709h1.8V9.479H90.557A8.992,8.992,0,0,0,83.339,1.7V1.345A1.4,1.4,0,0,0,81.891,0H80.419a1.4,1.4,0,0,0-1.448,1.345V1.7a8.993,8.993,0,0,0-7.219,7.778h-1.12v3.095h1.8v.709a1.3,1.3,0,0,0-.137.174,1.858,1.858,0,0,0-.229.938,3.71,3.71,0,0,0,.185,1.08,7.2,7.2,0,0,0,1.02,2.277,2.59,2.59,0,0,0,.655.61,2.812,2.812,0,0,0,.451.231,7.988,7.988,0,0,0,2.247,3.838v.9a1.546,1.546,0,0,0-1.272,1.136l-.3,1.271c-.032.006-.059.013-.094.02a3.851,3.851,0,0,0-.539.118c-.452.149-1.183.3-2,.522a10.492,10.492,0,0,0-3.864,1.745,5.311,5.311,0,0,0-1.472,1.795,5.811,5.811,0,0,0-.574,2.624q0,.355.034.736a.9.9,0,0,0,.175.44,2.236,2.236,0,0,0,.649.556,9.658,9.658,0,0,0,1.967.854,39.6,39.6,0,0,0,11.825,1.593,39.6,39.6,0,0,0,11.824-1.593,9.647,9.647,0,0,0,1.968-.854,2.241,2.241,0,0,0,.65-.556.888.888,0,0,0,.174-.44q.035-.38.034-.736A5.81,5.81,0,0,0,95.232,29.931Zm-9.382-5.242.432,1.818,1.024,4.3-4.053-.5-1.535,1.531.006-1.129h-.041l3.711-4.29,0-.139s-.007-.3-.013-.68-.013-.839-.013-1.152c0-.032,0-.061,0-.091H85.4A.452.452,0,0,1,85.849,24.689ZM79.333,2.706V3.992h.776V1.345a.3.3,0,0,1,.311-.289h1.472a.3.3,0,0,1,.311.289V3.992h.776V2.706a7.9,7.9,0,0,1,6.465,7.109H72.866A7.9,7.9,0,0,1,79.333,2.706Zm-7.563,8.812v-.984H90.541v.984H71.769Zm3.653,6.6-.058-.3-.311-.1a2.065,2.065,0,0,1-.481-.217A1.777,1.777,0,0,1,74,16.837a8.4,8.4,0,0,1-.655-1.653,2.726,2.726,0,0,1-.14-.79.859.859,0,0,1,.094-.44.472.472,0,0,1,.272-.215.834.834,0,0,1,.222-.042l.608.07V12.574H87.912v1.194l.608-.07a.827.827,0,0,1,.222.042.472.472,0,0,1,.272.215.866.866,0,0,1,.095.44,2.756,2.756,0,0,1-.14.79,8.456,8.456,0,0,1-.654,1.653,1.786,1.786,0,0,1-.577.657,2.089,2.089,0,0,1-.481.217l-.311.1-.058.3A7.042,7.042,0,0,1,84.7,21.875l-.146.15v1.736l0,.067H84.54c0,.255,0,.4,0,.619,0,.511.016,1.374.023,1.708L83.44,27.45a5.123,5.123,0,0,1-4.572,0L77.75,26.156c.006-.334.022-1.2.022-1.708,0-.217,0-.364,0-.619h-.012l0-.067V22.026l-.146-.15A7.038,7.038,0,0,1,75.423,18.117Zm.605,8.39.433-1.818a.451.451,0,0,1,.446-.333h.037v.091c0,.313-.006.773-.013,1.152s-.012.679-.012.68l0,.139,3.71,4.29h-.039l0,1.129-1.534-1.531-4.054.5Zm18.611,6.65a.62.62,0,0,1-.1.1,3.434,3.434,0,0,1-.664.392,15.474,15.474,0,0,1-2.774.932,41.963,41.963,0,0,1-9.947,1.1,41.963,41.963,0,0,1-9.946-1.1,15.51,15.51,0,0,1-2.775-.932,3.4,3.4,0,0,1-.663-.392.594.594,0,0,1-.1-.1c-.017-.208-.027-.41-.027-.6a4.547,4.547,0,0,1,.8-2.729A6.169,6.169,0,0,1,71.53,27.77c.6-.211,1.212-.372,1.772-.51s1.056-.253,1.475-.389l-1.234,5.179,5.083-.622,2.53,2.522,2.531-2.522,5.082.622L87.534,26.87c.419.136.92.25,1.474.389s1.17.3,1.773.51a6.163,6.163,0,0,1,3.09,2.058,4.541,4.541,0,0,1,.8,2.729C94.667,32.747,94.657,32.949,94.639,33.157Z" fill="#4b4b4b"/>
    <path id="Path_217" data-name="Path 217" d="M229.434,70.5V69.2h1.3V68.086h-1.3v-1.3h-1.113v1.3h-1.3V69.2h1.3v1.3Z" transform="translate(-147.722 -62.514)" fill="#4b4b4b"/>
  </g>
</svg>
