<svg xmlns="http://www.w3.org/2000/svg" width="30.062" height="36.775" viewBox="0 0 30.062 36.775">
  <g id="エグゼクティブな人物アイコン" transform="translate(-60.405)">
    <path id="Path_218" data-name="Path 218" d="M214.681,238.347c.412,1.378,2.561,1.58,3.847.374-1.918.1-2.126-1.328-3.826-1.352v0h-.041v0c-1.7.024-1.909,1.447-3.826,1.352C212.119,239.927,214.268,239.725,214.681,238.347Z" transform="translate(-139.199 -220.47)" fill="#4b4b4b"/>
    <path id="Path_219" data-name="Path 219" d="M237.788,387.545h-1.062l-.581,4.592,1.642,3.191,1.642-3.191-.581-4.592Z" transform="translate(-162.376 -361.227)" fill="#4b4b4b"/>
    <path id="Path_220" data-name="Path 220" d="M89.453,29.043a7.471,7.471,0,0,0-3.736-2.534c-.678-.239-1.34-.414-1.923-.563s-1.089-.273-1.43-.393a8.027,8.027,0,0,1-1.663-.763,2.04,2.04,0,0,1-.486-.416.484.484,0,0,1-.127-.294V21.995a8.267,8.267,0,0,0,2.306-3.966,2.716,2.716,0,0,0,1.419-1.3,9.688,9.688,0,0,0,.763-1.919,2.773,2.773,0,0,0,.136-.8,1.35,1.35,0,0,0-.279-.866,1.128,1.128,0,0,0-.122-.126,9.006,9.006,0,0,0,.973-3.958,6.717,6.717,0,0,0-.946-3.521A5.515,5.515,0,0,0,81.7,3.283a2.434,2.434,0,0,1-.353-.2c-.289-.188-.681-.478-1.149-.8A15.584,15.584,0,0,0,77.595.78a8.744,8.744,0,0,0-3.5-.78c-.161,0-.323,0-.486.016A9.362,9.362,0,0,0,71.035.5,6.8,6.8,0,0,0,68.42,2.215c-.714.72-1.344,1.552-2.129,2.467a4.789,4.789,0,0,0-1.052,3.2,11.3,11.3,0,0,0,.618,3.4c.232.712.485,1.331.677,1.781a1.147,1.147,0,0,0-.147.152,1.382,1.382,0,0,0-.225.793,2.771,2.771,0,0,0,.136.8,7.51,7.51,0,0,0,1.047,2.353,2.677,2.677,0,0,0,.673.63,2.921,2.921,0,0,0,.462.238,8.266,8.266,0,0,0,2.306,3.966V24.08a.493.493,0,0,1-.137.3,2.988,2.988,0,0,1-.887.652,8.15,8.15,0,0,1-1.242.52c-.465.154-1.214.315-2.052.539a10.722,10.722,0,0,0-3.963,1.8,5.484,5.484,0,0,0-1.51,1.854,6.052,6.052,0,0,0-.588,2.713q0,.366.035.758a.92.92,0,0,0,.179.455,2.286,2.286,0,0,0,.665.574,9.92,9.92,0,0,0,2.019.882,40.365,40.365,0,0,0,12.132,1.647A43.977,43.977,0,0,0,85.946,35.6a16.91,16.91,0,0,0,3.076-1.046A4.638,4.638,0,0,0,89.939,34a1.719,1.719,0,0,0,.314-.326.925.925,0,0,0,.179-.455c.023-.262.035-.513.035-.757A5.725,5.725,0,0,0,89.453,29.043Zm-19.9-11.5-.059-.312-.319-.107a2.118,2.118,0,0,1-.493-.225,1.833,1.833,0,0,1-.592-.68,8.686,8.686,0,0,1-.672-1.707,1.768,1.768,0,0,1-.091-.5.361.361,0,0,1,.041-.205c.014-.017.019-.025.068-.047l-.181-.417h0l.122.28h0a.991.991,0,0,1,.346-.051,3.086,3.086,0,0,1,.739.109c.108.028.2.056.264.077l.072.024.018.007h0l.715.271-.138-.71s-.03-.151-.074-.4c-.067-.366-.167-.939-.25-1.51a12.129,12.129,0,0,1-.147-1.474,4.106,4.106,0,0,1,.11-1.064,1.232,1.232,0,0,1,.2-.431.853.853,0,0,1,.472-.3,3.482,3.482,0,0,1,.95-.1c.987,0,2.46.18,4.427.181C77.2,8.25,78.873,8,80.013,8a4.055,4.055,0,0,1,.921.084,1.071,1.071,0,0,1,.733.481,2.685,2.685,0,0,1,.278,1.4A16.062,16.062,0,0,1,81.711,12c-.059.366-.119.7-.163.946s-.074.4-.074.4l-.138.71.715-.271h0a3.715,3.715,0,0,1,1.093-.218,1.1,1.1,0,0,1,.29.032l.121-.38-.164.524c.076.022.091.039.1.054a.33.33,0,0,1,.046.211,1.77,1.77,0,0,1-.091.5,6.586,6.586,0,0,1-.875,2.018,1.535,1.535,0,0,1-.389.369,2.118,2.118,0,0,1-.493.225l-.319.107-.059.312a7.28,7.28,0,0,1-2.247,3.883l-.15.155v2.5c0,.012,0,.023,0,.034l-3.079,1.862h-.952L71.94,24.19a1.08,1.08,0,0,0,.012-.11v-2.5l-.15-.155A7.28,7.28,0,0,1,69.555,17.538ZM79.7,25.44l-1.8,2.518L76.44,26.5l.019-.3,2.584-1.562a1.757,1.757,0,0,0,.232.387A2.784,2.784,0,0,0,79.7,25.44Zm-5.315,1.1-1.424,1.419-1.8-2.522a2.848,2.848,0,0,0,.411-.4,1.873,1.873,0,0,0,.218-.342l2.574,1.556Zm1.14,9.144h-.092l-.14,0-5.244-9.566a6.742,6.742,0,0,0,.691-.377l2.15,3.014,1.537-1.532.01.159h1.943l.013-.2,1.581,1.576,2.148-3.011q.175.108.36.207c.1.051.2.094.3.141Z" fill="#4b4b4b"/>
  </g>
</svg>
