<svg id="warning" xmlns="http://www.w3.org/2000/svg" width="18" height="16.962" viewBox="0 0 18 16.962">
  <g id="グループ_438" data-name="グループ 438">
    <path id="パス_171" data-name="パス 171" d="M17.626,13.585,11.267,1.9a2.637,2.637,0,0,0-4.535,0L.374,13.585a2.636,2.636,0,0,0,2.267,3.983H15.359A2.636,2.636,0,0,0,17.626,13.585ZM9,15.458A1.055,1.055,0,1,1,10.055,14.4,1.056,1.056,0,0,1,9,15.458Zm1.055-4.219a1.055,1.055,0,0,1-2.109,0V5.966a1.055,1.055,0,0,1,2.109,0Z" transform="translate(0 -0.605)" fill="#000"/>
  </g>
</svg>
