<svg id="写真のフリーアイコン5" xmlns="http://www.w3.org/2000/svg" width="22" height="22" viewBox="0 0 22 22">
  <path id="パス_206" data-name="パス 206" d="M0,0V22H22V0ZM20.022,20.022H1.978V1.978H20.022Z" fill="#888484"/>
  <path id="パス_207" data-name="パス 207" d="M66.329,198.126h15.5a.42.42,0,0,0,.351-.652l-4.808-7.285a1.051,1.051,0,0,0-1.756,0l-3.387,5.155-1.869-2.119a1.051,1.051,0,0,0-1.667.119l-2.71,4.13a.421.421,0,0,0,.351.651Z" transform="translate(-63.077 -181.565)" fill="#888484"/>
  <path id="パス_208" data-name="パス 208" d="M120.1,130.833a2.132,2.132,0,1,0-2.132-2.132A2.132,2.132,0,0,0,120.1,130.833Z" transform="translate(-112.9 -121.131)" fill="#888484"/>
</svg>
