<svg id="safety_1_" data-name="safety (1)" xmlns="http://www.w3.org/2000/svg" width="17" height="12.949" viewBox="0 0 17 12.949">
  <g id="グループ_387" data-name="グループ 387">
    <path id="パス_162" data-name="パス 162" d="M16,11.953v-1.58a7.365,7.365,0,0,0-1.529-4.507,7.614,7.614,0,0,0-3.486-2.538A1.5,1.5,0,0,0,9.5,1.906H7.5A1.5,1.5,0,0,0,6.012,3.327,7.614,7.614,0,0,0,2.525,5.866,7.365,7.365,0,0,0,1,10.373v1.58a1.494,1.494,0,0,0,.5,2.9H15.506a1.494,1.494,0,0,0,.5-2.9ZM1.992,10.373A6.482,6.482,0,0,1,4.018,5.7V7.385a.5.5,0,0,0,1,0V4.915a6.479,6.479,0,0,1,1-.521V8.381a.5.5,0,0,0,1,0V3.7s0,0,0,0V3.4a.5.5,0,0,1,.5-.5H9.5a.5.5,0,0,1,.5.5v.292s0,0,0,0V8.381a.5.5,0,0,0,1,0V4.394a6.485,6.485,0,0,1,1,.521v2.47a.5.5,0,0,0,1,0V5.7a6.482,6.482,0,0,1,2.025,4.677v1.494H1.992Zm13.514,3.486H1.494a.5.5,0,1,1,0-1H15.506a.5.5,0,1,1,0,1Z" transform="translate(0 -1.906)" fill="#000"/>
  </g>
</svg>
