<svg xmlns="http://www.w3.org/2000/svg" width="18" height="18" viewBox="0 0 18 18">
  <g id="チェック" transform="translate(-116 -90)">
    <circle id="楕円形_38" data-name="楕円形 38" cx="9" cy="9" r="9" transform="translate(116 90)" fill="#000"/>
    <path id="close" d="M6.65,5,9.744,1.907a.875.875,0,0,0,0-1.237L9.331.257a.875.875,0,0,0-1.237,0L5,3.351,1.907.256a.875.875,0,0,0-1.237,0L.256.669a.875.875,0,0,0,0,1.237L3.351,5,.257,8.094a.875.875,0,0,0,0,1.237l.412.412a.875.875,0,0,0,1.237,0L5,6.65,8.094,9.744a.875.875,0,0,0,1.237,0l.412-.412a.875.875,0,0,0,0-1.237Zm0,0" transform="translate(120.16 93.892)" fill="#fff"/>
  </g>
</svg>
