<svg id="bell_1_" data-name="bell (1)" xmlns="http://www.w3.org/2000/svg" width="22" height="26.4" viewBox="0 0 22 26.4">
  <path id="パス_14" data-name="パス 14" d="M137.972,421.568a4.644,4.644,0,0,1-4.64-4.64.928.928,0,1,1,1.856,0,2.784,2.784,0,1,0,5.568,0,.928.928,0,1,1,1.856,0A4.644,4.644,0,0,1,137.972,421.568Zm0,0" transform="translate(-126.972 -395.168)" fill="#000"/>
  <path id="パス_15" data-name="パス 15" d="M20.075,82.977H1.925A1.888,1.888,0,0,1,0,81.132a1.813,1.813,0,0,1,.673-1.4A6.95,6.95,0,0,0,3.3,74.319V71.38A7.553,7.553,0,0,1,11,64a7.553,7.553,0,0,1,7.7,7.38v2.939a6.948,6.948,0,0,0,2.616,5.4A1.815,1.815,0,0,1,22,81.132,1.888,1.888,0,0,1,20.075,82.977ZM11,65.581a5.934,5.934,0,0,0-6.05,5.8v2.939a8.5,8.5,0,0,1-3.2,6.61.259.259,0,0,0-.1.2.272.272,0,0,0,.275.264h18.15a.273.273,0,0,0,.275-.264.257.257,0,0,0-.1-.2,8.5,8.5,0,0,1-3.2-6.612V71.38A5.935,5.935,0,0,0,11,65.581Zm0,0" transform="translate(0 -60.288)" fill="#000"/>
  <path id="パス_16" data-name="パス 16" d="M198.26,5.568a.928.928,0,0,1-.928-.928V.928a.928.928,0,1,1,1.856,0V4.64A.928.928,0,0,1,198.26,5.568Zm0,0" transform="translate(-187.26)" fill="#000"/>
</svg>
