<svg xmlns="http://www.w3.org/2000/svg" width="22.516" height="18.813" viewBox="0 0 22.516 18.813">
  <g id="company" transform="translate(0.293 -1.75)">
    <g id="グループ_285" data-name="グループ 285" transform="translate(0 5)">
      <path id="パス_106" data-name="パス 106" d="M19.685,20.313H2.289A2.249,2.249,0,0,1,0,18.061V7.252A2.249,2.249,0,0,1,2.289,5h17.4a2.249,2.249,0,0,1,2.289,2.252V18.061A2.249,2.249,0,0,1,19.685,20.313ZM2.289,5.9A1.4,1.4,0,0,0,.916,7.252V18.061a1.4,1.4,0,0,0,1.373,1.351h17.4a1.4,1.4,0,0,0,1.373-1.351V7.252A1.4,1.4,0,0,0,19.685,5.9Z" transform="translate(0 -5)" stroke="#000" stroke-width="0.5"/>
    </g>
    <g id="グループ_286" data-name="グループ 286" transform="translate(6.985 2)">
      <path id="パス_107" data-name="パス 107" d="M15.5,6a.472.472,0,0,1-.5-.5v-2a.472.472,0,0,0-.5-.5h-5a.472.472,0,0,0-.5.5v2a.5.5,0,0,1-1,0v-2A1.538,1.538,0,0,1,9.5,2h5A1.538,1.538,0,0,1,16,3.5v2A.472.472,0,0,1,15.5,6Z" transform="translate(-8 -2)" stroke="#000" stroke-width="0.5"/>
    </g>
    <g id="グループ_287" data-name="グループ 287" transform="translate(-0.027 8.178)">
      <path id="パス_108" data-name="パス 108" d="M10.983,14H10.8L.272,10A.632.632,0,0,1,0,9.3.543.543,0,0,1,.639,9l10.344,4L21.327,9q.412-.15.549.3a.427.427,0,0,1-.275.6l-10.527,4c0,.1,0,.1-.092.1Z" transform="translate(0.027 -8.962)" stroke="#000" stroke-width="0.5"/>
    </g>
  </g>
</svg>
