<svg xmlns="http://www.w3.org/2000/svg" width="22.5" height="24.5" viewBox="0 0 22.5 24.5">
  <g id="project" transform="translate(-0.75 0.25)">
    <path id="パス_109" data-name="パス 109" d="M20.5,24H8.5A2.5,2.5,0,0,1,6,21.5V6.5A2.5,2.5,0,0,1,8.5,4h12A2.5,2.5,0,0,1,23,6.5v15A2.5,2.5,0,0,1,20.5,24ZM8.5,5A1.5,1.5,0,0,0,7,6.5v15A1.5,1.5,0,0,0,8.5,23h12A1.5,1.5,0,0,0,22,21.5V6.5A1.5,1.5,0,0,0,20.5,5Z" stroke="#000" stroke-width="0.5"/>
    <path id="パス_110" data-name="パス 110" d="M4.5,21h-1A2.5,2.5,0,0,1,1,18.5V2.5A2.5,2.5,0,0,1,3.5,0h12A2.5,2.5,0,0,1,18,2.5a.5.5,0,0,1-1,0A1.5,1.5,0,0,0,15.5,1H3.5A1.5,1.5,0,0,0,2,2.5v16A1.5,1.5,0,0,0,3.5,20h1a.5.5,0,0,1,0,1Z" stroke="#000" stroke-width="0.5"/>
    <path id="パス_111" data-name="パス 111" d="M18.5,17h-8a.5.5,0,0,1,0-1h8a.5.5,0,0,1,0,1Z" stroke="#000" stroke-width="0.5"/>
    <path id="パス_112" data-name="パス 112" d="M18.5,21h-8a.5.5,0,0,1,0-1h8a.5.5,0,0,1,0,1Z" stroke="#000" stroke-width="0.5"/>
    <path id="パス_113" data-name="パス 113" d="M18.5,13h-8a.5.5,0,0,1,0-1h8a.5.5,0,0,1,0,1Z" stroke="#000" stroke-width="0.5"/>
    <path id="パス_114" data-name="パス 114" d="M18.5,9h-8a.5.5,0,0,1,0-1h8a.5.5,0,0,1,0,1Z" stroke="#000" stroke-width="0.5"/>
  </g>
</svg>
