<svg id="edit-button" xmlns="http://www.w3.org/2000/svg" width="19.059" height="19.142" viewBox="0 0 19.059 19.142">
  <path id="パス_84" data-name="パス 84" d="M20.99.645,20.967.624A2.385,2.385,0,0,0,17.6.777L9.074,10.108A.823.823,0,0,0,8.9,10.4l-1,3a1.143,1.143,0,0,0,1.082,1.5h0a1.138,1.138,0,0,0,.459-.1l2.9-1.27a.822.822,0,0,0,.278-.2l8.524-9.332A2.388,2.388,0,0,0,20.99.645ZM9.819,12.853l.588-1.763.05-.054,1.115,1.018-.05.054ZM19.928,2.9l-7.246,7.933L11.566,9.82l7.246-7.933a.739.739,0,0,1,1.044-.047l.023.021A.74.74,0,0,1,19.928,2.9Z" transform="translate(-2.706 0)" fill="#000"/>
  <path id="パス_85" data-name="パス 85" d="M16.693,8.5a.823.823,0,0,0-.823.823v6.987a2.1,2.1,0,0,1-2.093,2.093H3.8a2.1,2.1,0,0,1-2.093-2.093V6.421A2.1,2.1,0,0,1,3.8,4.328h7.22a.823.823,0,1,0,0-1.646H3.8A3.743,3.743,0,0,0,.063,6.421v9.894A3.743,3.743,0,0,0,3.8,20.054h9.975a3.743,3.743,0,0,0,3.739-3.739V9.328A.823.823,0,0,0,16.693,8.5Z" transform="translate(-0.063 -0.912)" fill="#000"/>
</svg>
