<svg xmlns="http://www.w3.org/2000/svg" width="15" height="11.25" viewBox="0 0 15 11.25">
  <path id="envelope" d="M13.594,2.25H1.406A1.408,1.408,0,0,0,0,3.656v8.437A1.408,1.408,0,0,0,1.406,13.5H13.594A1.408,1.408,0,0,0,15,12.094V3.656A1.408,1.408,0,0,0,13.594,2.25Zm0,.937a.466.466,0,0,1,.18.036L7.5,8.661,1.227,3.224a.467.467,0,0,1,.18-.036Zm0,9.375H1.406a.469.469,0,0,1-.469-.469V4.214L7.193,9.636a.469.469,0,0,0,.614,0l6.255-5.421v7.879A.469.469,0,0,1,13.594,12.562Z" transform="translate(0 -2.25)" fill="#000"/>
</svg>
