<svg xmlns="http://www.w3.org/2000/svg" xmlns:xlink="http://www.w3.org/1999/xlink" width="24" height="26" viewBox="0 0 24 26">
  <defs>
    <clipPath id="clip-path">
      <rect id="長方形_329" data-name="長方形 329" width="24" height="26" transform="translate(313 315.678)" fill="#000" stroke="#000" stroke-width="1"/>
    </clipPath>
  </defs>
  <g id="マスクグループ_30" data-name="マスクグループ 30" transform="translate(-313 -315.678)" clip-path="url(#clip-path)">
    <g id="目のの無料アイコン7" transform="translate(313 322.776)">
      <path id="パス_198" data-name="パス 198" d="M24.421,41.546a15.923,15.923,0,0,0-3.053-3.655,14.858,14.858,0,0,0-3.8-2.5,13.033,13.033,0,0,0-10.716,0,15.517,15.517,0,0,0-5.119,3.827A14.593,14.593,0,0,0,0,41.546l1.4.786.652.37v0h0a13.885,13.885,0,0,1,2.694-3.164A12.4,12.4,0,0,1,7.908,37.5a10.679,10.679,0,0,1,8.693.039,13.18,13.18,0,0,1,4.331,3.25,14.212,14.212,0,0,1,1.1,1.388c.12.174.209.313.266.4l.061.1.012.021,0,0,.463-.263-.464.261Z" transform="translate(0 -34.235)" fill="#000"/>
      <path id="パス_199" data-name="パス 199" d="M49.173,55.871a4.12,4.12,0,1,0,4.12,4.121A4.12,4.12,0,0,0,49.173,55.871Z" transform="translate(-36.963 -51.986)" fill="#000"/>
    </g>
  </g>
</svg>
