<svg xmlns="http://www.w3.org/2000/svg" width="23.749" height="22.263" viewBox="0 0 23.749 22.263">
  <g id="home_6_" data-name="home (6)" transform="translate(0 -16.017)">
    <path id="パス_11" data-name="パス 11" d="M57.9,206.065H42.134A2.136,2.136,0,0,1,40,203.931V192.705a.742.742,0,0,1,1.484,0v11.226a.65.65,0,0,0,.649.649H57.9a.65.65,0,0,0,.649-.649V192.705a.742.742,0,0,1,1.484,0v11.226A2.136,2.136,0,0,1,57.9,206.065Z" transform="translate(-38.144 -167.785)" fill="#000"/>
    <path id="パス_12" data-name="パス 12" d="M23.007,27.518a.74.74,0,0,1-.525-.217l-9.23-9.23a1.95,1.95,0,0,0-2.755,0L1.267,27.3a.742.742,0,0,1-1.05-1.05l9.23-9.23a3.436,3.436,0,0,1,4.854,0l9.23,9.23a.742.742,0,0,1-.525,1.267Z" transform="translate(0)" fill="#000"/>
    <path id="パス_13" data-name="パス 13" d="M182.679,297.631h-5.937a.742.742,0,0,1-.742-.742V290.3a2.322,2.322,0,0,1,2.319-2.319H181.1a2.322,2.322,0,0,1,2.319,2.319v6.587A.742.742,0,0,1,182.679,297.631Zm-5.2-1.484h4.453V290.3a.836.836,0,0,0-.835-.835h-2.783a.836.836,0,0,0-.835.835Z" transform="translate(-167.836 -259.351)" fill="#000"/>
  </g>
</svg>
