<svg xmlns="http://www.w3.org/2000/svg" width="22.835" height="16.056" viewBox="0 0 22.835 16.056">
  <g id="menu_3_" data-name="menu (3)" transform="translate(0 -76)">
    <g id="グループ_163" data-name="グループ 163" transform="translate(0 83.136)">
      <g id="グループ_162" data-name="グループ 162">
        <path id="パス_17" data-name="パス 17" d="M21.943,236H.892a.892.892,0,0,0,0,1.784H21.943a.892.892,0,0,0,0-1.784Z" transform="translate(0 -236)" fill="#000"/>
      </g>
    </g>
    <g id="グループ_165" data-name="グループ 165" transform="translate(0 76)">
      <g id="グループ_164" data-name="グループ 164" transform="translate(0 0)">
        <path id="パス_18" data-name="パス 18" d="M21.943,76H.892a.892.892,0,1,0,0,1.784H21.943a.892.892,0,1,0,0-1.784Z" transform="translate(0 -76)" fill="#000"/>
      </g>
    </g>
    <g id="グループ_167" data-name="グループ 167" transform="translate(0 90.272)">
      <g id="グループ_166" data-name="グループ 166" transform="translate(0 0)">
        <path id="パス_19" data-name="パス 19" d="M21.943,396H.892a.892.892,0,0,0,0,1.784H21.943a.892.892,0,0,0,0-1.784Z" transform="translate(0 -396)" fill="#000"/>
      </g>
    </g>
  </g>
</svg>
