<svg xmlns="http://www.w3.org/2000/svg" width="21.905" height="23.506" viewBox="0 0 21.905 23.506">
  <g id="mypage" transform="translate(-17.44)">
    <g id="グループ_238" data-name="グループ 238" transform="translate(17.44 13.24)">
      <g id="グループ_237" data-name="グループ 237">
        <path id="パス_72" data-name="パス 72" d="M28.392,288.389c-7.063,0-10.952,3.341-10.952,9.408a.858.858,0,0,0,.858.858H38.487a.858.858,0,0,0,.858-.858C39.345,291.731,35.455,288.389,28.392,288.389Zm-9.205,8.55c.337-4.536,3.43-6.835,9.205-6.835s8.868,2.3,9.206,6.835Z" transform="translate(-17.44 -288.389)" fill="#000"/>
      </g>
    </g>
    <g id="グループ_240" data-name="グループ 240" transform="translate(22.702)">
      <g id="グループ_239" data-name="グループ 239">
        <path id="パス_73" data-name="パス 73" d="M137.74,0a5.622,5.622,0,0,0-5.691,5.8,5.71,5.71,0,1,0,11.381,0A5.622,5.622,0,0,0,137.74,0Zm0,10.266a4.244,4.244,0,0,1-3.975-4.461,3.9,3.9,0,0,1,3.975-4.089,3.945,3.945,0,0,1,3.975,4.089A4.244,4.244,0,0,1,137.74,10.266Z" transform="translate(-132.049)" fill="#000"/>
      </g>
    </g>
  </g>
</svg>
