<svg xmlns="http://www.w3.org/2000/svg" width="17.932" height="18" viewBox="0 0 17.932 18">
  <g id="telephone" transform="translate(-0.034)">
    <path id="パス_166" data-name="パス 166" d="M3.668,11.965a19.1,19.1,0,0,0,6.352,4.976,9.886,9.886,0,0,0,3.554,1.052c.086,0,.168.007.254.007a2.944,2.944,0,0,0,2.283-.981A.081.081,0,0,0,16.125,17a9.611,9.611,0,0,1,.72-.746c.175-.168.354-.343.526-.522a1.8,1.8,0,0,0-.007-2.682l-2.242-2.242a1.814,1.814,0,0,0-1.313-.6,1.875,1.875,0,0,0-1.328.6L11.146,12.14c-.123-.071-.25-.134-.369-.194a4.612,4.612,0,0,1-.41-.224A14.132,14.132,0,0,1,6.991,8.649,8.138,8.138,0,0,1,5.85,6.829c.351-.317.679-.649,1-.973.112-.116.228-.231.343-.347a1.912,1.912,0,0,0,.619-1.343,1.9,1.9,0,0,0-.619-1.343L6.077,1.712c-.131-.131-.254-.257-.38-.388-.246-.254-.5-.515-.757-.75A1.859,1.859,0,0,0,3.627,0,1.914,1.914,0,0,0,2.3.578L.9,1.973A2.866,2.866,0,0,0,.05,3.808,6.9,6.9,0,0,0,.568,6.792,17.359,17.359,0,0,0,3.668,11.965ZM.96,3.886a1.973,1.973,0,0,1,.593-1.268L2.941,1.231A1,1,0,0,1,3.627.914a.953.953,0,0,1,.671.324c.25.231.485.474.738.731.127.131.257.261.388.4L6.536,3.476a1.013,1.013,0,0,1,.351.7,1.013,1.013,0,0,1-.351.7c-.116.116-.231.235-.347.351-.347.351-.671.683-1.029,1l-.019.019a.729.729,0,0,0-.186.828c0,.011.007.019.011.03a8.778,8.778,0,0,0,1.309,2.13A14.915,14.915,0,0,0,9.87,12.5a5.339,5.339,0,0,0,.492.269,4.612,4.612,0,0,1,.41.224l.041.022a.78.78,0,0,0,.362.093.791.791,0,0,0,.556-.254l1.395-1.395a.987.987,0,0,1,.683-.332.937.937,0,0,1,.66.332l2.249,2.245a.9.9,0,0,1-.011,1.406c-.157.168-.321.328-.5.5a10.741,10.741,0,0,0-.78.809,2.048,2.048,0,0,1-1.6.679c-.063,0-.131,0-.194-.007a8.981,8.981,0,0,1-3.215-.962,18.141,18.141,0,0,1-6.046-4.737,16.616,16.616,0,0,1-2.947-4.9A6.016,6.016,0,0,1,.96,3.886Z" fill="#000"/>
  </g>
</svg>
