<?xml version="1.0" encoding="UTF-8" standalone="no"?><!-- Generator: Gravit.io --><svg xmlns="http://www.w3.org/2000/svg" xmlns:xlink="http://www.w3.org/1999/xlink" style="isolation:isolate" viewBox="0 0 512 512" width="512pt" height="512pt"><defs><clipPath id="_clipPath_lvs7G2RbRUYQyeyHIDiNESx4H0EIr6O5"><rect width="512" height="512"/></clipPath></defs><g clip-path="url(#_clipPath_lvs7G2RbRUYQyeyHIDiNESx4H0EIr6O5)"><path d=" M 353.278 379.384 L 159.102 379.384 C 151.523 379.384 145.375 373.249 145.359 365.671 C 145.355 363.81 144.949 179.344 144.98 148.25 C 145.038 86.337 208.71 27.074 228.223 10.385 C 244.463 -3.504 268.003 -3.456 284.196 10.5 C 306.394 29.629 336.569 63.123 354.683 99.758 C 358.047 106.562 355.259 114.805 348.456 118.168 C 341.649 121.531 333.409 118.744 330.046 111.941 C 313.752 78.99 286.409 48.691 266.251 31.321 C 260.418 26.295 251.939 26.27 246.087 31.273 C 210.521 61.692 172.503 108.403 172.466 148.277 C 172.441 174.324 172.723 308.3 172.816 351.898 L 353.28 351.898 C 360.869 351.898 367.023 358.052 367.023 365.641 C 367.023 373.23 360.869 379.384 353.278 379.384 Z " fill="#000"/><path d=" M 426.41 421.21 C 424.068 421.21 421.728 420.612 419.622 419.415 L 347.046 378.181 C 342.747 375.74 340.091 371.176 340.091 366.233 L 340.091 189.716 C 340.091 184.226 343.359 179.263 348.403 177.092 C 353.447 174.923 359.297 175.962 363.284 179.736 L 417.391 230.969 C 431.856 244.668 440.154 263.951 440.154 283.873 L 440.154 407.464 C 440.154 412.358 437.552 416.881 433.324 419.342 C 431.189 420.586 428.799 421.21 426.41 421.21 Z  M 367.578 358.233 L 412.668 383.852 L 412.668 283.876 C 412.668 271.47 407.501 259.461 398.493 250.929 L 367.579 221.656 L 367.579 358.233 L 367.578 358.233 L 367.578 358.233 Z " fill="#000"/><path d=" M 85.59 421.21 C 83.201 421.21 80.813 420.587 78.677 419.345 C 74.448 416.884 71.847 412.361 71.847 407.467 L 71.847 283.875 C 71.847 263.953 80.144 244.67 94.61 230.972 L 148.717 179.737 C 152.704 175.965 158.56 174.927 163.598 177.093 C 168.642 179.263 171.91 184.226 171.91 189.718 L 171.91 366.233 C 171.91 371.178 169.253 375.741 164.955 378.181 L 92.379 419.415 C 90.274 420.612 87.93 421.21 85.59 421.21 Z  M 144.423 221.656 L 113.509 250.93 C 104.5 259.46 99.334 271.468 99.334 283.875 L 99.334 383.851 L 144.424 358.232 L 144.424 221.656 L 144.423 221.656 L 144.423 221.656 Z " fill="#000"/><path d=" M 256 246.227 C 222.566 246.227 195.365 219.026 195.365 185.593 C 195.365 152.159 222.566 124.958 256 124.958 C 289.434 124.958 316.635 152.159 316.635 185.593 C 316.635 219.027 289.434 246.227 256 246.227 Z  M 256 152.445 C 237.722 152.445 222.851 167.315 222.851 185.594 C 222.851 203.873 237.721 218.741 256 218.741 C 274.279 218.741 289.149 203.872 289.149 185.594 C 289.149 167.316 274.278 152.445 256 152.445 Z " fill="#000"/><path d=" M 256 512 C 254.229 512 252.457 511.658 250.787 510.973 C 248.345 509.971 190.946 485.762 190.946 426.484 C 190.946 424.105 191.089 421.633 191.369 419.137 C 192.151 412.184 198.032 406.93 205.027 406.93 L 306.974 406.93 C 313.969 406.93 319.849 412.184 320.632 419.137 C 320.912 421.631 321.055 424.104 321.055 426.484 C 321.055 487.079 263.423 510.118 260.97 511.071 C 259.368 511.689 257.685 512 256 512 Z  M 218.977 434.418 C 222.8 461.833 245.768 477.337 256.14 483.021 C 266.578 477.524 289.348 462.476 293.053 434.418 L 218.977 434.418 L 218.977 434.418 Z " fill="#000"/></g></svg>