<svg xmlns="http://www.w3.org/2000/svg" width="34.472" height="40.822" viewBox="0 0 34.472 40.822">
  <g id="engineer_1_" data-name="engineer (1)" transform="translate(-41)">
    <g id="グループ_227" data-name="グループ 227" transform="translate(49.017 0)">
      <path id="パス_43" data-name="パス 43" d="M153.025,2.282V1.2a1.2,1.2,0,0,0-1.2-1.2h-3.207a1.2,1.2,0,0,0-1.2,1.2v1.08l-2.405,1.337a10.054,10.054,0,0,0-1.94,1.913A9.91,9.91,0,0,0,141,11.624a1.2,1.2,0,0,0,1.2,1.2h16.033a1.2,1.2,0,0,0,1.2-1.2,9.911,9.911,0,0,0-2.068-6.092,10.057,10.057,0,0,0-1.94-1.913Z" transform="translate(-141 0)" fill="#ffdd54"/>
      <path id="パス_44" data-name="パス 44" d="M264.017,12.827a1.2,1.2,0,0,0,1.2-1.2,9.91,9.91,0,0,0-2.068-6.092,10.056,10.056,0,0,0-1.94-1.913l-2.4-1.337V1.2A1.2,1.2,0,0,0,257.6,0H256V12.827Z" transform="translate(-246.781 0)" fill="#ffb454"/>
      <path id="パス_45" data-name="パス 45" d="M291,32.2a1.2,1.2,0,1,0,2.4,0V29.808a10.109,10.109,0,0,0-2.4-1.337Z" transform="translate(-278.975 -26.189)" fill="#ffdd54"/>
      <path id="パス_46" data-name="パス 46" d="M192.2,33.4a1.2,1.2,0,0,0,1.2-1.2v-3.73a10.111,10.111,0,0,0-2.4,1.337V32.2A1.2,1.2,0,0,0,192.2,33.4Z" transform="translate(-186.992 -26.189)" fill="#fff48b"/>
    </g>
    <g id="グループ_228" data-name="グループ 228" transform="translate(41 25.68)">
      <path id="パス_47" data-name="パス 47" d="M67.337,338.186h-18.2A14.018,14.018,0,0,0,41,350.918a1.2,1.2,0,0,0,1.2,1.2H54.709l3.527-.962,3.527.962H74.269a1.2,1.2,0,0,0,1.2-1.2A14.018,14.018,0,0,0,67.337,338.186Z" transform="translate(-41 -336.979)" fill="#c9e6ea"/>
      <path id="パス_48" data-name="パス 48" d="M265.1,338.186H256v12.972l3.527.962h12.506a1.2,1.2,0,0,0,1.2-1.2A14.018,14.018,0,0,0,265.1,338.186Z" transform="translate(-238.764 -336.979)" fill="#96c9d0"/>
      <path id="パス_49" data-name="パス 49" d="M156.387,323.132a1.211,1.211,0,0,0-.136-.008H146.9a1.185,1.185,0,0,0-.136.008,14,14,0,0,0-4.29,1.2l5.574,13.934H155.1l5.574-13.934A14,14,0,0,0,156.387,323.132Z" transform="translate(-134.34 -323.124)" fill="#93d1f2"/>
      <path id="パス_50" data-name="パス 50" d="M260.675,323.124H256v15.142h3.527l5.574-13.934a14,14,0,0,0-4.29-1.2A1.19,1.19,0,0,0,260.675,323.124Z" transform="translate(-238.764 -323.124)" fill="#6ea7d0"/>
    </g>
    <g id="グループ_232" data-name="グループ 232" transform="translate(47.413 10.32)">
      <g id="グループ_231" data-name="グループ 231">
        <g id="グループ_229" data-name="グループ 229" transform="translate(2.405 4.344)">
          <path id="パス_51" data-name="パス 51" d="M159.418,198.041A8.418,8.418,0,0,1,151,189.623v-5.436h16.835v5.436A8.418,8.418,0,0,1,159.418,198.041Z" transform="translate(-151 -184.187)" fill="#efc0b9"/>
        </g>
        <path id="パス_52" data-name="パス 52" d="M256,198.041a8.418,8.418,0,0,0,8.418-8.418v-5.436H256Z" transform="translate(-245.177 -179.843)" fill="#e0a290"/>
        <g id="グループ_230" data-name="グループ 230" transform="translate(0 0)">
          <path id="パス_53" data-name="パス 53" d="M131.823,136.574a22.549,22.549,0,0,1-10.158-2.528,1.2,1.2,0,0,1-.665-1.076V131.2a1.2,1.2,0,0,1,1.2-1.2h19.24a1.2,1.2,0,0,1,1.2,1.2v1.768a1.2,1.2,0,0,1-.665,1.076A22.55,22.55,0,0,1,131.823,136.574Z" transform="translate(-121 -130)" fill="#fff48b"/>
        </g>
        <path id="パス_54" data-name="パス 54" d="M265.62,130H256v6.574a22.549,22.549,0,0,0,10.158-2.528,1.2,1.2,0,0,0,.665-1.076V131.2A1.2,1.2,0,0,0,265.62,130Z" transform="translate(-245.177 -130)" fill="#ffdd54"/>
      </g>
    </g>
  </g>
</svg>
