<svg xmlns="http://www.w3.org/2000/svg" width="38.619" height="38.77" viewBox="0 0 38.619 38.77">
  <g id="office-building" transform="translate(-1)">
    <path id="パス_55" data-name="パス 55" d="M35.643,149.683h2.84a1.136,1.136,0,0,0,1.136-1.136V121.136A1.136,1.136,0,0,0,38.483,120H2.136A1.136,1.136,0,0,0,1,121.136v27.412a1.136,1.136,0,0,0,1.136,1.136h2.84l1.1-.3,1.174.3h3.975l9.087-1.212,9.087,1.212h3.975l1.174-.909Z" transform="translate(0 -110.913)" fill="#525cdd"/>
    <path id="パス_56" data-name="パス 56" d="M275.309,148.548V121.136A1.136,1.136,0,0,0,274.174,120H256v28.472l9.087,1.212h3.975l1.174-.909,1.1.909h2.84A1.136,1.136,0,0,0,275.309,148.548Z" transform="translate(-235.691 -110.913)" fill="#00337a"/>
    <path id="パス_57" data-name="パス 57" d="M429.636,420a1.136,1.136,0,0,0-1.136,1.136v5.831h2.272v-5.831A1.136,1.136,0,0,0,429.636,420Z" transform="translate(-395.128 -388.196)" fill="#ffb454"/>
    <path id="パス_58" data-name="パス 58" d="M54.636,420a1.136,1.136,0,0,0-1.136,1.136v5.831h2.272v-5.831A1.136,1.136,0,0,0,54.636,420Z" transform="translate(-48.525 -388.196)" fill="#ffdd54"/>
    <path id="パス_59" data-name="パス 59" d="M136,1.136V38.77h4.165l4.922-.984,4.922.984h4.165V1.136A1.136,1.136,0,0,0,153.038,0h-15.9A1.136,1.136,0,0,0,136,1.136Z" transform="translate(-124.777)" fill="#6e75e2"/>
    <path id="パス_60" data-name="パス 60" d="M265.087,38.77V1.136A1.136,1.136,0,0,0,263.951,0H256V37.786l4.922.984Z" transform="translate(-235.691)" fill="#525cdd"/>
    <path id="パス_61" data-name="パス 61" d="M191.223,420h-9.087A1.136,1.136,0,0,0,181,421.136v5.831h2.272l1.136-.984,1.136.984h2.272l1.117-.968,1.154.968h2.272v-5.831A1.136,1.136,0,0,0,191.223,420Z" transform="translate(-166.37 -388.196)" fill="#ffdd54"/>
    <path id="パス_62" data-name="パス 62" d="M260.543,420H256v6.967h1.136l1.136-.984,1.136.984h2.272v-5.831A1.136,1.136,0,0,0,260.543,420Z" transform="translate(-235.691 -388.196)" fill="#ffb454"/>
    <circle id="楕円形_39" data-name="楕円形 39" cx="1.317" cy="1.317" r="1.317" transform="translate(14.165 4.54)" fill="#c8ffff"/>
    <circle id="楕円形_40" data-name="楕円形 40" cx="1.317" cy="1.317" r="1.317" transform="translate(23.82 4.54)" fill="#acceff"/>
    <ellipse id="楕円形_41" data-name="楕円形 41" cx="0.878" cy="1.317" rx="0.878" ry="1.317" transform="translate(19.432 4.54)" fill="#c8ffff"/>
    <path id="パス_63" data-name="パス 63" d="M257.136,61.136A1.136,1.136,0,0,0,256,60v2.272A1.136,1.136,0,0,0,257.136,61.136Z" transform="translate(-235.691 -55.457)" fill="#acceff"/>
    <circle id="楕円形_42" data-name="楕円形 42" cx="1.317" cy="1.317" r="1.317" transform="translate(14.165 8.929)" fill="#c8ffff"/>
    <circle id="楕円形_43" data-name="楕円形 43" cx="1.317" cy="1.317" r="1.317" transform="translate(23.82 8.929)" fill="#acceff"/>
    <ellipse id="楕円形_44" data-name="楕円形 44" cx="0.878" cy="1.317" rx="0.878" ry="1.317" transform="translate(19.432 8.929)" fill="#c8ffff"/>
    <path id="パス_64" data-name="パス 64" d="M257.136,121.136A1.136,1.136,0,0,0,256,120v2.272A1.136,1.136,0,0,0,257.136,121.136Z" transform="translate(-235.691 -110.913)" fill="#acceff"/>
    <circle id="楕円形_45" data-name="楕円形 45" cx="1.317" cy="1.317" r="1.317" transform="translate(14.165 13.317)" fill="#c8ffff"/>
    <circle id="楕円形_46" data-name="楕円形 46" cx="1.317" cy="1.317" r="1.317" transform="translate(23.82 13.317)" fill="#acceff"/>
    <ellipse id="楕円形_47" data-name="楕円形 47" cx="0.878" cy="1.317" rx="0.878" ry="1.317" transform="translate(19.432 13.317)" fill="#c8ffff"/>
    <path id="パス_65" data-name="パス 65" d="M257.136,181.136A1.136,1.136,0,0,0,256,180v2.272A1.136,1.136,0,0,0,257.136,181.136Z" transform="translate(-235.691 -166.37)" fill="#acceff"/>
    <ellipse id="楕円形_48" data-name="楕円形 48" cx="1.317" cy="0.878" rx="1.317" ry="0.878" transform="translate(14.165 22.972)" fill="#c8ffff"/>
    <ellipse id="楕円形_49" data-name="楕円形 49" cx="1.317" cy="0.878" rx="1.317" ry="0.878" transform="translate(23.82 22.972)" fill="#acceff"/>
    <circle id="楕円形_50" data-name="楕円形 50" cx="0.878" cy="0.878" r="0.878" transform="translate(19.432 22.972)" fill="#c8ffff"/>
    <path id="パス_66" data-name="パス 66" d="M257.136,301.136A1.136,1.136,0,0,0,256,300v2.272A1.136,1.136,0,0,0,257.136,301.136Z" transform="translate(-235.691 -277.283)" fill="#acceff"/>
    <ellipse id="楕円形_51" data-name="楕円形 51" cx="1.317" cy="0.878" rx="1.317" ry="0.878" transform="translate(14.165 27.36)" fill="#c8ffff"/>
    <ellipse id="楕円形_52" data-name="楕円形 52" cx="1.317" cy="0.878" rx="1.317" ry="0.878" transform="translate(23.82 27.36)" fill="#acceff"/>
    <circle id="楕円形_53" data-name="楕円形 53" cx="0.878" cy="0.878" r="0.878" transform="translate(19.432 27.36)" fill="#c8ffff"/>
    <path id="パス_67" data-name="パス 67" d="M257.136,361.136A1.136,1.136,0,0,0,256,360v2.272A1.136,1.136,0,0,0,257.136,361.136Z" transform="translate(-235.691 -332.74)" fill="#acceff"/>
    <ellipse id="楕円形_54" data-name="楕円形 54" cx="1.317" cy="0.878" rx="1.317" ry="0.878" transform="translate(14.165 18.583)" fill="#c8ffff"/>
    <ellipse id="楕円形_55" data-name="楕円形 55" cx="1.317" cy="0.878" rx="1.317" ry="0.878" transform="translate(23.82 18.583)" fill="#acceff"/>
    <circle id="楕円形_56" data-name="楕円形 56" cx="0.878" cy="0.878" r="0.878" transform="translate(19.432 18.583)" fill="#c8ffff"/>
    <path id="パス_68" data-name="パス 68" d="M257.136,241.136A1.136,1.136,0,0,0,256,240v2.272A1.136,1.136,0,0,0,257.136,241.136Z" transform="translate(-235.691 -221.826)" fill="#acceff"/>
    <path id="パス_69" data-name="パス 69" d="M271,450h2.272v4.695H271Z" transform="translate(-249.555 -415.925)" fill="#acceff"/>
    <path id="パス_70" data-name="パス 70" d="M211,450h2.272v4.695H211Z" transform="translate(-194.098 -415.925)" fill="#c8ffff"/>
    <circle id="楕円形_57" data-name="楕円形 57" cx="1.136" cy="1.136" r="1.136" transform="translate(33.372 13.63)" fill="#acceff"/>
    <circle id="楕円形_58" data-name="楕円形 58" cx="1.136" cy="1.136" r="1.136" transform="translate(33.372 18.174)" fill="#acceff"/>
    <circle id="楕円形_59" data-name="楕円形 59" cx="1.136" cy="1.136" r="1.136" transform="translate(33.372 22.717)" fill="#acceff"/>
    <circle id="楕円形_60" data-name="楕円形 60" cx="1.136" cy="1.136" r="1.136" transform="translate(33.372 27.26)" fill="#acceff"/>
    <g id="グループ_233" data-name="グループ 233" transform="translate(4.975 13.63)">
      <circle id="楕円形_61" data-name="楕円形 61" cx="1.136" cy="1.136" r="1.136" fill="#c8ffff"/>
      <circle id="楕円形_62" data-name="楕円形 62" cx="1.136" cy="1.136" r="1.136" transform="translate(0 4.543)" fill="#c8ffff"/>
      <circle id="楕円形_63" data-name="楕円形 63" cx="1.136" cy="1.136" r="1.136" transform="translate(0 9.087)" fill="#c8ffff"/>
      <circle id="楕円形_64" data-name="楕円形 64" cx="1.136" cy="1.136" r="1.136" transform="translate(0 13.63)" fill="#c8ffff"/>
    </g>
  </g>
</svg>
