<svg xmlns="http://www.w3.org/2000/svg" width="13.257" height="14.8" viewBox="0 0 13.257 14.8">
  <path id="stopwatch" d="M14.5,3.266,12.942,1.712a.578.578,0,1,0-.818.818l.368.368-.755.755a6.242,6.242,0,0,0-3.45-1.429V1.156h.52A.578.578,0,1,0,8.808,0h-2.2a.578.578,0,0,0,0,1.156h.52V2.223A6.3,6.3,0,1,0,12.555,4.47l.755-.755.368.368a.578.578,0,0,0,.818-.818ZM7.709,13.644A5.145,5.145,0,1,1,12.854,8.5a5.151,5.151,0,0,1-5.145,5.145Zm3-5.145a.578.578,0,0,1-.578.578H7.709A.578.578,0,0,1,7.131,8.5V5.1a.578.578,0,0,1,1.156,0V7.92h1.848A.578.578,0,0,1,10.713,8.5Z" transform="translate(-1.408 0)" fill="#000"/>
</svg>
