<?xml version="1.0" encoding="UTF-8"?>
<svg id="_2" data-name="2" xmlns="http://www.w3.org/2000/svg" viewBox="0 0 504.09 508">
  <defs>
    <style>
      .cls-1 {
        fill: #4b4b4b;
      }

      .cls-2 {
        fill: none;
        stroke: #4b4b4b;
        stroke-miterlimit: 10;
        stroke-width: 42px;
      }
    </style>
  </defs>
  <g>
    <path class="cls-1" d="M184.18,94.21c26.22,0,47.47-21.09,47.47-47.11S210.4,0,184.18,0s-47.48,21.09-47.48,47.1c0,26.02,21.25,47.11,47.48,47.11Z"/>
    <path class="cls-1" d="M313.24,234.92l-54.38-28.37-22.92-46.72c-11.56-23.57-33.7-40.29-59.68-45.08l-23.58-4.35c-11.86-2.18-24.11-.61-35.03,4.51l-68.67,32.17c-7.63,3.57-13.65,9.79-16.97,17.46L1.48,235.3c-1.94,4.5-1.98,9.58-.11,14.09,1.87,4.53,5.49,8.12,10.05,9.98l.69,.27c9.1,3.7,19.53-.38,23.65-9.24l28.03-60.23,44.37-14.23-43.96,193.86-42.82,105.93c-2.37,5.87-2.11,12.46,.71,18.12,2.82,5.67,7.94,9.88,14.07,11.58l1.85,.51c9.84,2.73,20.29-1.5,25.42-10.28l50.75-86.98,30.24-59.53,55.18,60.42,40.76,85.68c4.6,9.66,15.47,14.72,25.89,12.04l.46-.13c6.05-1.55,11.16-5.54,14.13-11,2.94-5.46,3.47-11.9,1.44-17.76l-29.99-86.25c-4.21-12.13-10.46-23.46-18.47-33.53l-48.7-63.89,17.87-92.19,23.06,29.07c2.85,3.6,6.54,6.47,10.74,8.36l60.66,27.17c4.39,1.96,9.39,2.08,13.86,.33,4.48-1.75,8.05-5.23,9.9-9.64l.19-.46c3.55-8.44,0-18.17-8.15-22.43Z"/>
  </g>
  <g>
    <line class="cls-2" x1="248" y1="309.15" x2="453.55" y2="309.15"/>
    <polygon class="cls-1" points="372.42 380.36 443.67 309.15 372.42 237.95 432.88 237.95 504.09 309.15 432.88 380.36 372.42 380.36"/>
  </g>
</svg>