<?xml version="1.0" encoding="UTF-8"?>
<svg id="_2" data-name="2" xmlns="http://www.w3.org/2000/svg" viewBox="0 0 509.08 507.93">
  <defs>
    <style>
      .cls-1 {
        fill: #4b4b4b;
      }

      .cls-2 {
        fill: none;
        stroke: #4b4b4b;
        stroke-miterlimit: 10;
        stroke-width: 42px;
      }
    </style>
  </defs>
  <g>
    <path class="cls-1" d="M138.63,94.2c-26.2,0-47.5-21.1-47.5-47.1S112.43,0,138.63,0s47.5,21.1,47.5,47.1-21.3,47.1-47.5,47.1Z"/>
    <path class="cls-1" d="M9.63,234.9l54.4-28.4,22.9-46.7c11.6-23.6,33.7-40.3,59.7-45.1l23.6-4.4c11.9-2.2,24.1-.6,35,4.5l68.6,32.3c7.6,3.6,13.7,9.8,17,17.5l30.5,70.7c1.9,4.5,2,9.6,.1,14.1s-5.5,8.1-10,10l-.7,.3c-9.1,3.7-19.5-.4-23.7-9.2l-28-60.2-44.4-14.2,44,193.9,42.8,105.7c2.4,5.9,2.1,12.5-.7,18.1-2.8,5.7-7.9,9.9-14.1,11.6l-1.9,.5c-9.8,2.7-20.3-1.5-25.4-10.3l-50.8-87-30.2-59.5-55.2,60.4-40.8,85.7c-4.6,9.7-15.5,14.7-25.9,12l-.5-.1c-6.1-1.6-11.2-5.5-14.1-11s-3.5-11.9-1.4-17.8l30-86.3c4.2-12.1,10.5-23.5,18.5-33.5l48.7-63.9-17.9-92.2-23.1,29.1c-2.8,3.6-6.5,6.5-10.7,8.4l-60.7,27.2c-4.4,2-9.4,2.1-13.9,.3-4.5-1.8-8-5.2-9.9-9.6l-.2-.5c-3.3-8.4,.2-18.1,8.4-22.4Z"/>
  </g>
  <g>
    <line class="cls-2" x1="509.08" y1="332" x2="303.48" y2="332"/>
    <polygon class="cls-1" points="384.68 260.8 313.38 332 384.68 403.2 324.18 403.2 252.98 332 324.18 260.8 384.68 260.8"/>
  </g>
</svg>