<svg id="user_6_" data-name="user (6)" xmlns="http://www.w3.org/2000/svg" width="13.349" height="16" viewBox="0 0 13.349 16">
  <path id="パス_158" data-name="パス 158" d="M7.423,7.707a3.729,3.729,0,0,0,2.725-1.129,3.729,3.729,0,0,0,1.129-2.725,3.729,3.729,0,0,0-1.129-2.725A3.73,3.73,0,0,0,7.423,0,3.729,3.729,0,0,0,4.7,1.129,3.729,3.729,0,0,0,3.57,3.854,3.729,3.729,0,0,0,4.7,6.578,3.73,3.73,0,0,0,7.423,7.707ZM5.362,1.792A2.785,2.785,0,0,1,7.423.938a2.786,2.786,0,0,1,2.062.854,2.786,2.786,0,0,1,.854,2.062,2.786,2.786,0,0,1-.854,2.062,2.786,2.786,0,0,1-2.062.854,2.786,2.786,0,0,1-2.062-.854,2.785,2.785,0,0,1-.854-2.062A2.786,2.786,0,0,1,5.362,1.792Zm0,0" transform="translate(-0.85)"  fill="#000"/>
  <path id="パス_159" data-name="パス 159" d="M13.317,14.718a9.519,9.519,0,0,0-.13-1.011,7.965,7.965,0,0,0-.249-1.016,5.021,5.021,0,0,0-.418-.948,3.574,3.574,0,0,0-.63-.821,2.778,2.778,0,0,0-.905-.569,3.128,3.128,0,0,0-1.156-.209,1.173,1.173,0,0,0-.626.266c-.188.122-.407.264-.652.421a3.739,3.739,0,0,1-.844.372,3.278,3.278,0,0,1-2.065,0A3.727,3.727,0,0,1,4.8,10.83c-.243-.155-.463-.3-.653-.421a1.172,1.172,0,0,0-.626-.266,3.124,3.124,0,0,0-1.155.209,2.776,2.776,0,0,0-.905.569,3.574,3.574,0,0,0-.63.821,5.031,5.031,0,0,0-.418.948,7.984,7.984,0,0,0-.249,1.016,9.454,9.454,0,0,0-.13,1.011c-.021.306-.032.624-.032.945a2.657,2.657,0,0,0,.789,2.01,2.84,2.84,0,0,0,2.033.742h7.7a2.841,2.841,0,0,0,2.033-.742,2.656,2.656,0,0,0,.789-2.01C13.349,15.341,13.338,15.023,13.317,14.718Zm-1.4,2.276a1.912,1.912,0,0,1-1.387.483h-7.7a1.912,1.912,0,0,1-1.387-.483,1.735,1.735,0,0,1-.5-1.331c0-.3.01-.6.03-.88a8.527,8.527,0,0,1,.117-.911,7.042,7.042,0,0,1,.219-.9,4.1,4.1,0,0,1,.34-.771,2.649,2.649,0,0,1,.463-.607,1.843,1.843,0,0,1,.6-.374,2.158,2.158,0,0,1,.738-.142c.033.017.091.051.186.113.193.126.415.269.661.426a4.646,4.646,0,0,0,1.06.474,4.215,4.215,0,0,0,2.642,0,4.651,4.651,0,0,0,1.06-.474c.251-.161.467-.3.66-.426.095-.062.153-.1.186-.113a2.159,2.159,0,0,1,.739.142,1.846,1.846,0,0,1,.6.374,2.642,2.642,0,0,1,.463.607,4.082,4.082,0,0,1,.34.771,7.026,7.026,0,0,1,.219.9,8.6,8.6,0,0,1,.117.911h0c.02.283.03.579.03.88A1.735,1.735,0,0,1,11.913,16.994Zm0,0" transform="translate(0 -2.415)" fill="#000"/>
</svg>
